name GIL11_slow2EmgEnv.mot
datacolumns 51
datarows 10
range 0.58425915 0.59259248
endheader
                time	   rect_fem_l_emgRec	   rect_fem_l_emgEnv	   rect_fem_l_emgAve	   rect_fem_l_emgSDp	   rect_fem_l_emgSDm	   rect_fem_r_emgRec	   rect_fem_r_emgEnv	   rect_fem_r_emgAve	   rect_fem_r_emgSDp	   rect_fem_r_emgSDm	   med_hams_l_emgRec	   med_hams_l_emgEnv	   med_hams_l_emgAve	   med_hams_l_emgSDp	   med_hams_l_emgSDm	   med_hams_r_emgRec	   med_hams_r_emgEnv	   med_hams_r_emgAve	   med_hams_r_emgSDp	   med_hams_r_emgSDm	   lat_hams_l_emgRec	   lat_hams_l_emgEnv	   lat_hams_l_emgAve	   lat_hams_l_emgSDp	   lat_hams_l_emgSDm	   lat_hams_r_emgRec	   lat_hams_r_emgEnv	   lat_hams_r_emgAve	   lat_hams_r_emgSDp	   lat_hams_r_emgSDm	    tib_ant_l_emgRec	    tib_ant_l_emgEnv	    tib_ant_l_emgAve	    tib_ant_l_emgSDp	    tib_ant_l_emgSDm	    tib_ant_r_emgRec	    tib_ant_r_emgEnv	    tib_ant_r_emgAve	    tib_ant_r_emgSDp	    tib_ant_r_emgSDm	    gas_sol_l_emgRec	    gas_sol_l_emgEnv	    gas_sol_l_emgAve	    gas_sol_l_emgSDp	    gas_sol_l_emgSDm	    gas_sol_r_emgRec	    gas_sol_r_emgEnv	    gas_sol_r_emgAve	    gas_sol_r_emgSDp	    gas_sol_r_emgSDm	
          0.58425915	          0.09397471	          0.05449123	          0.02122550	          0.04911379	         -0.00666280	          0.02691039	          0.07810568	          0.22518916	          0.37767038	          0.07270795	          0.02058736	          0.14720096	          0.24867110	          0.53256218	         -0.03521998	          0.01325409	          0.01973328	          0.20887387	          0.38021150	          0.03753623	          0.11443356	          0.28079354	          0.16890302	          0.33313605	          0.00466999	          0.01641154	          0.02149853	          0.17047516	          0.20536667	          0.13558364	          0.03214873	          0.04926833	          0.09245917	          0.11523950	          0.06967885	          0.15892451	          0.61259162	          0.44360211	          0.52882144	          0.35838279	          0.42901958	          0.85943451	          0.72068822	          0.84170921	          0.59966724	          0.00875601	          0.02945537	          0.03806080	          0.04874527	          0.02737632	
          0.58518505	          0.04437966	          0.05403004	          0.02203239	          0.05045150	         -0.00638673	          0.05801675	          0.07757208	          0.22796506	          0.38171332	          0.07421680	          0.00464003	          0.14534528	          0.24856468	          0.53373913	         -0.03660978	          0.00315494	          0.02001893	          0.21039468	          0.38312848	          0.03766088	          0.18051311	          0.27626322	          0.16936895	          0.33393146	          0.00480644	          0.00391104	          0.02167804	          0.17290969	          0.20794112	          0.13787826	          0.00385461	          0.04977064	          0.09268245	          0.11554675	          0.06981815	          0.13697992	          0.61722975	          0.44455323	          0.52887385	          0.36023260	          0.21312473	          0.85741042	          0.72148216	          0.84178019	          0.60118413	          0.00728106	          0.02939273	          0.03879972	          0.04960718	          0.02799226	
          0.58611095	          0.02093197	          0.05355549	          0.02287671	          0.05183455	         -0.00608113	          0.03862118	          0.07701788	          0.23074020	          0.38575032	          0.07573009	          0.00457848	          0.14346070	          0.24844524	          0.53486353	         -0.03797305	          0.00107705	          0.02030904	          0.21191309	          0.38603909	          0.03778709	          0.14163456	          0.27169810	          0.16983144	          0.33469915	          0.00496373	          0.01082076	          0.02186957	          0.17535290	          0.21052618	          0.14017962	          0.00574598	          0.05029585	          0.09289943	          0.11584472	          0.06995415	          0.20752626	          0.62154835	          0.44551820	          0.52894676	          0.36208963	          0.00560988	          0.85508614	          0.72221190	          0.84178647	          0.60263733	          0.00088080	          0.02931492	          0.03953582	          0.05046563	          0.02860601	
          0.58703691	          0.00209266	          0.05306918	          0.02375862	          0.05326308	         -0.00574584	          0.00114666	          0.07644517	          0.23351432	          0.38978094	          0.07724771	          0.03049460	          0.14155207	          0.24831268	          0.53593493	         -0.03930956	          0.01198339	          0.02060370	          0.21342926	          0.38894339	          0.03791513	          0.10981391	          0.26711268	          0.17029047	          0.33543894	          0.00514200	          0.01429200	          0.02207366	          0.17780466	          0.21312175	          0.14248757	          0.00157786	          0.05084470	          0.09311014	          0.11613341	          0.07008688	          0.18224746	          0.62554306	          0.44649678	          0.52904008	          0.36395349	          0.20589361	          0.85247086	          0.72287714	          0.84172782	          0.60402647	          0.00576281	          0.02922223	          0.04026887	          0.05132035	          0.02921740	
          0.58796287	          0.00233991	          0.05257280	          0.02467814	          0.05473704	         -0.00538075	          0.01796572	          0.07585613	          0.23628682	          0.39380427	          0.07876937	          0.04330098	          0.13962434	          0.24816692	          0.53695270	         -0.04061887	          0.01615946	          0.02090302	          0.21494281	          0.39184076	          0.03804487	          0.09446056	          0.26252170	          0.17074594	          0.33615048	          0.00534140	          0.00409996	          0.02229089	          0.18026464	          0.21572747	          0.14480181	          0.00791624	          0.05141789	          0.09331446	          0.11641268	          0.07021624	          0.08714187	          0.62921085	          0.44748834	          0.52915344	          0.36582324	          0.28641914	          0.84957489	          0.72347724	          0.84160378	          0.60535071	          0.01850249	          0.02911502	          0.04099855	          0.05217096	          0.02982614	
          0.58888876	          0.04495930	          0.05206809	          0.02563531	          0.05625634	         -0.00498572	          0.04040544	          0.07525305	          0.23905699	          0.39781925	          0.08029473	          0.05000986	          0.13768255	          0.24800797	          0.53791650	         -0.04190056	          0.01196451	          0.02120704	          0.21645367	          0.39473081	          0.03817654	          0.05931624	          0.25794008	          0.17119783	          0.33683372	          0.00556195	          0.00369714	          0.02252180	          0.18273231	          0.21834284	          0.14712179	          0.02503232	          0.05201613	          0.09351241	          0.11668251	          0.07034230	          0.10320920	          0.63255004	          0.44849256	          0.52928674	          0.36769837	          0.30054370	          0.84640957	          0.72401160	          0.84141390	          0.60660930	          0.01269769	          0.02899367	          0.04172453	          0.05301710	          0.03043196	
          0.58981466	          0.04485249	          0.05155689	          0.02663025	          0.05782110	         -0.00456060	          0.03947326	          0.07463832	          0.24182461	          0.40182552	          0.08182371	          0.06052100	          0.13573180	          0.24783580	          0.53882594	         -0.04315434	          0.00935162	          0.02151578	          0.21796177	          0.39761339	          0.03831016	          0.00611431	          0.25338283	          0.17164609	          0.33748843	          0.00580375	          0.01216238	          0.02276696	          0.18520766	          0.22096785	          0.14944748	          0.03457430	          0.05264009	          0.09370387	          0.11694279	          0.07046496	          0.05577863	          0.63556024	          0.44950897	          0.52943969	          0.36957824	          0.32997999	          0.84298723	          0.72448003	          0.84115811	          0.60780196	          0.00000755	          0.02885861	          0.04244659	          0.05385851	          0.03103468	
          0.59074062	          0.03541738	          0.05104107	          0.02766308	          0.05943139	         -0.00410524	          0.06620148	          0.07401441	          0.24458945	          0.40582268	          0.08335622	          0.05797970	          0.13377722	          0.24765034	          0.53968064	         -0.04437996	          0.00564807	          0.02182921	          0.21946715	          0.40048847	          0.03844583	          0.02928455	          0.24886503	          0.17209074	          0.33811449	          0.00606699	          0.01129226	          0.02302693	          0.18769056	          0.22360237	          0.15177874	          0.01431690	          0.05329041	          0.09388890	          0.11719354	          0.07058427	          0.12750011	          0.63824238	          0.45053729	          0.52961214	          0.37146245	          0.42414213	          0.83932111	          0.72488183	          0.84083575	          0.60892791	          0.00473915	          0.02871033	          0.04316451	          0.05469493	          0.03163410	
          0.59166658	          0.06066004	          0.05052256	          0.02873379	          0.06108713	         -0.00361955	          0.07339577	          0.07338386	          0.24735083	          0.40980972	          0.08489193	          0.02975575	          0.13182395	          0.24745156	          0.54048021	         -0.04557709	          0.00371802	          0.02214727	          0.22096968	          0.40335561	          0.03858374	          0.01386445	          0.24440175	          0.17253171	          0.33871177	          0.00635165	         -0.00002769	          0.02330225	          0.19018064	          0.22624607	          0.15411522	          0.00491776	          0.05396768	          0.09406744	          0.11743469	          0.07070019	          0.23588233	          0.64059867	          0.45157698	          0.52980377	          0.37335019	          0.45238570	          0.83542528	          0.72521663	          0.84044664	          0.60998662	          0.00533446	          0.02854932	          0.04387798	          0.05552600	          0.03222997	
          0.59259248	          0.06028764	          0.05000336	          0.02984234	          0.06278814	         -0.00310346	          0.04257017	          0.07274926	          0.25010815	          0.41378577	          0.08643053	          0.01554718	          0.12987709	          0.24723949	          0.54122420	         -0.04674523	          0.00706411	          0.02246982	          0.22246908	          0.40621430	          0.03872386	          0.00625195	          0.24000798	          0.17296897	          0.33928014	          0.00665779	          0.00654172	          0.02359347	          0.19267744	          0.22889845	          0.15645642	          0.01354183	          0.05467247	          0.09423944	          0.11766617	          0.07081271	          0.25968653	          0.64263259	          0.45262772	          0.53001452	          0.37524091	          0.34105200	          0.83131457	          0.72548413	          0.83999065	          0.61097762	          0.00671437	          0.02837615	          0.04458667	          0.05635135	          0.03282200	
